<svg t="1693186235621" class="icon" viewBox="0 0 1024 1024" version="1.1" xmlns="http://www.w3.org/2000/svg" p-id="5440" width="64" height="64"><path d="M512 64c235.648 0 426.666667 105.045333 426.666667 234.666667 0 38.4-16.768 74.666667-46.506667 106.666666 29.738667 32 46.506667 68.266667 46.506667 106.666667 0 38.4-16.768 74.666667-46.506667 106.666667 29.738667 32 46.506667 68.266667 46.506667 106.666666 0 129.621333-191.018667 234.666667-426.666667 234.666667S85.333333 854.954667 85.333333 725.333333c0-38.4 16.768-74.666667 46.506667-106.666666C102.101333 586.666667 85.333333 550.4 85.333333 512c0-38.4 16.768-74.666667 46.506667-106.666667C102.101333 373.333333 85.333333 337.066667 85.333333 298.666667c0-129.621333 191.018667-234.666667 426.666667-234.666667z m313.6 607.146667l-3.413333 2.005333C744.32 718.378667 634.154667 746.666667 512 746.666667c-123.946667 0-235.562667-29.056-313.514667-75.52C180.48 688.981333 170.666667 707.584 170.666667 725.333333c0 68.693333 146.56 149.333333 341.333333 149.333334 194.773333 0 341.333333-80.64 341.333333-149.333334 0-17.792-9.813333-36.394667-27.733333-54.186666z m0-213.333334l-3.413333 2.005334C744.32 505.045333 634.154667 533.333333 512 533.333333c-123.946667 0-235.562667-29.056-313.514667-75.52C180.48 475.648 170.666667 494.250667 170.666667 512c0 68.693333 146.56 149.333333 341.333333 149.333333 194.773333 0 341.333333-80.64 341.333333-149.333333 0-17.792-9.813333-36.394667-27.733333-54.186667zM512 149.333333C317.226667 149.333333 170.666667 229.973333 170.666667 298.666667s146.56 149.333333 341.333333 149.333333c194.773333 0 341.333333-80.64 341.333333-149.333333s-146.56-149.333333-341.333333-149.333334z" fill="#13227a" opacity=".65" p-id="5441"></path></svg>